<svg width="25" height="28" viewBox="0 0 25 28" fill="none" xmlns="http://www.w3.org/2000/svg">
<path d="M1 13.6501C1 11.4504 1 10.3506 1.43463 9.38382C1.86927 8.41707 2.68552 7.70131 4.31802 6.2698L5.9016 4.88117C8.85233 2.29372 10.3277 1 12.0851 1C13.8425 1 15.3179 2.29372 18.2686 4.88117L19.8522 6.2698C21.4847 7.70131 22.301 8.41707 22.7356 9.38382C23.1702 10.3506 23.1702 11.4504 23.1702 13.6501V20.5197C23.1702 23.5746 23.1702 25.102 22.2426 26.051C21.3149 27 19.8219 27 16.8359 27H7.33435C4.34831 27 2.85529 27 1.92764 26.051C1 25.102 1 23.5746 1 20.5197V13.6501Z" stroke="white" stroke-width="2"/>
<path d="M16.0441 24.5993V16.7765C16.0441 16.2242 15.5964 15.7765 15.0441 15.7765H9.12614C8.57386 15.7765 8.12614 16.2242 8.12614 16.7765V24.5993" stroke="white" stroke-width="2" stroke-linecap="round" stroke-linejoin="round"/>
</svg>
