<svg width="28" height="28" viewBox="0 0 28 28" fill="none" xmlns="http://www.w3.org/2000/svg">
<path d="M16.4922 3.92169L17.4872 3.82219L17.4872 3.82219L16.4922 3.92169ZM16.2174 2.71902L17.0065 2.1047L17.0064 2.1047L16.2174 2.71902ZM17.0258 6.03672L17.6289 5.23906L17.6289 5.23905L17.0258 6.03672ZM17.4913 6.22955L17.6289 5.23905L17.6289 5.23905L17.4913 6.22955ZM19.3642 5.11133L19.9974 5.88529L19.9974 5.88529L19.3642 5.11133ZM20.4089 4.45521L20.2853 3.46288L20.2853 3.46288L20.4089 4.45521ZM20.7541 4.47243L20.9758 3.49732L20.9758 3.49732L20.7541 4.47243ZM22.7707 6.27162L22.0636 6.97873L22.0636 6.97873L22.7707 6.27162ZM23.5275 7.24586L22.5524 7.46753L22.5524 7.46755L23.5275 7.24586ZM23.5448 7.59109L22.5524 7.46753L22.5524 7.46754L23.5448 7.59109ZM22.8886 8.6358L23.6626 9.26903L23.6626 9.26903L22.8886 8.6358ZM21.7704 10.5087L20.7799 10.6463L20.7799 10.6463L21.7704 10.5087ZM21.9632 10.9742L21.1655 11.5773L21.1655 11.5773L21.9632 10.9742ZM24.0783 11.5078L24.1778 10.5128L24.1778 10.5128L24.0783 11.5078ZM25.281 11.7826L24.6667 12.5717L24.6667 12.5717L25.281 11.7826ZM25.5129 12.0389L24.6667 12.5717L24.6667 12.5717L25.5129 12.0389ZM25.513 15.961L26.3593 16.4937L26.3593 16.4937L25.513 15.961ZM25.2809 16.2175L24.6667 15.4284L24.6667 15.4284L25.2809 16.2175ZM24.0784 16.4922L24.1779 17.4872L24.1779 17.4872L24.0784 16.4922ZM21.9638 17.0256L22.7613 17.6289L22.7613 17.6289L21.9638 17.0256ZM21.7708 17.4915L20.7803 17.3541L20.7803 17.3541L21.7708 17.4915ZM22.8888 19.3639L22.1149 19.9971L22.1149 19.9971L22.8888 19.3639ZM23.5448 20.4083L22.5525 20.532L22.5525 20.532L23.5448 20.4083ZM23.5276 20.7538L24.5026 20.9756L24.5026 20.9756L23.5276 20.7538ZM20.7542 23.5271L20.5325 22.552L20.5325 22.552L20.7542 23.5271ZM20.4089 23.5443L20.5325 22.552L20.5325 22.552L20.4089 23.5443ZM19.3642 22.8882L18.731 23.6621L18.731 23.6621L19.3642 22.8882ZM17.4914 21.77L17.3538 20.7795L17.3538 20.7795L17.4914 21.77ZM17.0258 21.9628L16.4227 21.1651L16.4227 21.1651L17.0258 21.9628ZM16.2173 25.2811L17.0063 25.8955L17.0063 25.8955L16.2173 25.2811ZM15.9612 25.5129L15.4284 24.6667L15.4283 24.6667L15.9612 25.5129ZM12.0389 25.5129L12.5717 24.6667L12.5716 24.6667L12.0389 25.5129ZM11.7826 25.281L12.5717 24.6667L12.5716 24.6667L11.7826 25.281ZM11.5078 24.0783L10.5128 24.1778L10.5128 24.1778L11.5078 24.0783ZM10.9742 21.9632L10.3711 22.7609L10.3711 22.7609L10.9742 21.9632ZM10.5087 21.7704L10.6463 20.7799L10.6463 20.7799L10.5087 21.7704ZM8.63575 22.8887L8.00251 22.1147L8.00251 22.1147L8.63575 22.8887ZM7.591 23.5448L7.71453 24.5372L7.71453 24.5372L7.591 23.5448ZM7.24581 23.5276L7.46747 22.5525L7.46747 22.5525L7.24581 23.5276ZM6.27154 22.7708L6.97864 22.0637L6.97864 22.0637L6.27154 22.7708ZM5.22919 21.7284L5.9363 21.0213L5.91552 21.0005L5.89356 20.981L5.22919 21.7284ZM5.22918 21.7284L4.52207 22.4355L4.54285 22.4563L4.56482 22.4758L5.22918 21.7284ZM4.47236 20.7542L5.44748 20.5325L5.44748 20.5325L4.47236 20.7542ZM4.45514 20.409L3.4628 20.2854L3.4628 20.2854L4.45514 20.409ZM5.11128 19.3642L5.88524 19.9975L5.88739 19.9948L5.11128 19.3642ZM5.11128 19.3642L4.33732 18.731L4.33517 18.7336L5.11128 19.3642ZM6.22952 17.4913L7.22001 17.3537L7.22001 17.3537L6.22952 17.4913ZM6.0367 17.0258L5.23903 17.6289L5.23903 17.6289L6.0367 17.0258ZM3.92167 16.4922L4.02117 15.4971L4.02117 15.4971L3.92167 16.4922ZM2.71901 16.2174L2.10468 17.0065L2.10468 17.0065L2.71901 16.2174ZM2.48706 15.9611L1.64079 16.4939L1.6408 16.4939L2.48706 15.9611ZM2.33333 14.7371L3.33333 14.7371L2.33333 14.7371ZM2.33333 13.2631L1.33333 13.2631L2.33333 13.2631ZM2.48712 12.0388L1.64092 11.5059L1.64092 11.5059L2.48712 12.0388ZM2.71891 11.7827L2.1045 10.9937L2.1045 10.9937L2.71891 11.7827ZM3.9218 11.5078V10.5078H3.87192L3.82229 10.5128L3.9218 11.5078ZM3.92182 11.5078V12.5078H3.9717L4.02132 12.5029L3.92182 11.5078ZM6.03724 10.974L5.23947 10.3711L5.23947 10.3711L6.03724 10.974ZM6.22994 10.5088L7.2204 10.6466L7.2204 10.6466L6.22994 10.5088ZM5.11149 8.63547L5.88544 8.00223L5.88544 8.00223L5.11149 8.63547ZM4.45518 7.59039L5.44754 7.46701L5.44754 7.46701L4.45518 7.59039ZM4.47238 7.2455L5.44754 7.46701L5.44754 7.46701L4.47238 7.2455ZM5.22939 6.27095L4.52228 5.56384L4.52228 5.56384L5.22939 6.27095ZM6.27159 5.22874L6.9787 5.93585L6.9787 5.93585L6.27159 5.22874ZM6.27159 5.22874L5.56449 4.52163L5.56449 4.52163L6.27159 5.22874ZM7.24586 4.4719L7.02421 3.49677L7.0242 3.49677L7.24586 4.4719ZM7.59105 4.45468L7.71459 3.46234L7.71458 3.46234L7.59105 4.45468ZM8.63589 5.1109L9.26913 4.33694L9.26913 4.33694L8.63589 5.1109ZM10.5086 6.22911L10.646 7.21962L10.646 7.21962L10.5086 6.22911ZM10.9744 6.03616L10.3712 5.23859L10.3711 5.2386L10.9744 6.03616ZM11.5078 3.92153L10.5128 3.82203L10.5128 3.82203L11.5078 3.92153ZM11.7825 2.71912L10.9934 2.10489L10.9934 2.10489L11.7825 2.71912ZM12.039 2.48701L11.5063 1.64068L11.5063 1.64068L12.039 2.48701ZM15.9611 2.48708L16.4939 1.64081L16.4939 1.64081L15.9611 2.48708ZM17.4872 3.82219C17.4567 3.51718 17.4277 3.21561 17.3772 2.96481C17.3233 2.69656 17.2281 2.38941 17.0065 2.1047L15.4283 3.33334C15.3839 3.27632 15.3937 3.24551 15.4165 3.35918C15.4429 3.49029 15.4626 3.67621 15.4971 4.02119L17.4872 3.82219ZM17.6289 5.23905C17.7495 5.33026 17.7126 5.41021 17.6517 5.13039C17.5925 4.85871 17.5515 4.46478 17.4872 3.82219L15.4971 4.02119C15.5563 4.61297 15.6079 5.14482 15.6975 5.5562C15.7854 5.95943 15.9536 6.47971 16.4227 6.83439L17.6289 5.23905ZM17.6289 5.23905L17.6289 5.23906L16.4227 6.83438C16.695 7.0403 17.0156 7.17306 17.3537 7.22004L17.6289 5.23905ZM18.7309 4.33737C18.2311 4.74631 17.9236 4.99587 17.6896 5.14612C17.4486 5.30086 17.4791 5.21825 17.6289 5.23905L17.3537 7.22004C17.9362 7.30095 18.4231 7.052 18.7703 6.829C19.1246 6.60149 19.5371 6.26189 19.9974 5.88529L18.7309 4.33737ZM20.2853 3.46288C19.9272 3.50746 19.6428 3.65735 19.4149 3.80887C19.2019 3.95055 18.9682 4.14327 18.7309 4.33737L19.9974 5.88529C20.2657 5.66575 20.4112 5.54824 20.5225 5.47418C20.6191 5.40997 20.6041 5.43862 20.5324 5.44755L20.2853 3.46288ZM20.9758 3.49732C20.7494 3.44584 20.5157 3.43419 20.2853 3.46288L20.5324 5.44755L20.5324 5.44755L20.9758 3.49732ZM22.4354 4.52214C22.2187 4.30539 22.0053 4.09036 21.8074 3.9282C21.5958 3.75476 21.3277 3.57731 20.9758 3.49732L20.5324 5.44755C20.462 5.43153 20.45 5.40154 20.5396 5.47503C20.6431 5.55981 20.7761 5.6912 21.0212 5.93635L22.4354 4.52214ZM23.4778 5.56452L22.4354 4.52214L21.0212 5.93635L22.0636 6.97873L23.4778 5.56452ZM24.5027 7.02419C24.4227 6.67233 24.2452 6.40416 24.0718 6.19254C23.9096 5.99468 23.6946 5.78126 23.4778 5.56452L22.0636 6.97873C22.3088 7.22388 22.4402 7.3569 22.5249 7.46033C22.5984 7.55 22.5684 7.53801 22.5524 7.46753L24.5027 7.02419ZM24.5371 7.71464C24.5658 7.48423 24.5541 7.25058 24.5027 7.02417L22.5524 7.46755L22.5524 7.46753L24.5371 7.71464ZM23.6626 9.26903C23.8567 9.03179 24.0494 8.79804 24.1911 8.58502C24.3426 8.35719 24.4925 8.07271 24.5371 7.71464L22.5524 7.46754C22.5613 7.39582 22.59 7.3809 22.5258 7.47744C22.4517 7.5888 22.3342 7.73423 22.1147 8.00256L23.6626 9.26903ZM22.7609 10.3711C22.7817 10.5209 22.6991 10.5514 22.8538 10.3104C23.0041 10.0764 23.2536 9.76886 23.6626 9.26903L22.1147 8.00256C21.7381 8.46286 21.3984 8.87541 21.1709 9.22968C20.9479 9.57695 20.699 10.0638 20.7799 10.6463L22.7609 10.3711ZM22.7609 10.3711L22.7609 10.3711L20.7799 10.6463C20.8269 10.9845 20.9596 11.305 21.1655 11.5773L22.7609 10.3711ZM24.1778 10.5128C23.5352 10.4485 23.1412 10.4075 22.8696 10.3483C22.5897 10.2874 22.6697 10.2505 22.7609 10.3711L21.1655 11.5773C21.5202 12.0464 22.0405 12.2146 22.4437 12.3025C22.8551 12.3921 23.387 12.4437 23.9788 12.5029L24.1778 10.5128ZM25.8953 10.9936C25.6106 10.7719 25.3035 10.6767 25.0352 10.6228C24.7844 10.5723 24.4828 10.5433 24.1778 10.5128L23.9788 12.5029C24.3238 12.5374 24.5097 12.5571 24.6408 12.5835C24.7545 12.6064 24.7237 12.6161 24.6667 12.5717L25.8953 10.9936ZM26.3592 11.5061C26.2355 11.3096 26.0785 11.1362 25.8953 10.9936L24.6667 12.5717L24.6667 12.5717L26.3592 11.5061ZM26.6667 13.263C26.6667 12.9564 26.6678 12.6535 26.6426 12.3989C26.6156 12.1266 26.5514 11.8115 26.3592 11.5061L24.6667 12.5717C24.6282 12.5105 24.6409 12.4808 24.6523 12.5962C24.6655 12.7293 24.6667 12.9163 24.6667 13.263H26.6667ZM26.6667 14.7372V13.263H24.6667V14.7372H26.6667ZM26.3593 16.4937C26.5515 16.1884 26.6156 15.8733 26.6426 15.6011C26.6678 15.3466 26.6667 15.0437 26.6667 14.7372H24.6667C24.6667 15.0838 24.6655 15.2708 24.6523 15.4038C24.6409 15.5192 24.6282 15.4895 24.6667 15.4284L26.3593 16.4937ZM25.8952 17.0066C26.0785 16.8639 26.2355 16.6903 26.3593 16.4937L24.6667 15.4284L24.6667 15.4284L25.8952 17.0066ZM24.1779 17.4872C24.4829 17.4567 24.7844 17.4277 25.0352 17.3773C25.3034 17.3233 25.6105 17.2282 25.8952 17.0066L24.6667 15.4284C24.7237 15.384 24.7545 15.3937 24.6408 15.4165C24.5097 15.4429 24.3238 15.4626 23.9789 15.4971L24.1779 17.4872ZM22.7613 17.6289C22.6701 17.7495 22.5902 17.7126 22.87 17.6516C23.1416 17.5924 23.5355 17.5515 24.1779 17.4872L23.9789 15.4971C23.3872 15.5563 22.8555 15.6079 22.4442 15.6975C22.0411 15.7853 21.5209 15.9534 21.1663 16.4223L22.7613 17.6289ZM22.7613 17.6289L22.7613 17.6289L21.1663 16.4223C20.9601 16.6949 20.8272 17.0157 20.7803 17.3541L22.7613 17.6289ZM23.6628 18.7306C23.2539 18.2309 23.0045 17.9235 22.8542 17.6896C22.6995 17.4487 22.7821 17.4791 22.7613 17.6289L20.7803 17.3541C20.6995 17.9365 20.9484 18.4232 21.1714 18.7703C21.3988 19.1245 21.7384 19.5369 22.1149 19.9971L23.6628 18.7306ZM24.5371 20.2846C24.4925 19.9266 24.3426 19.6422 24.1911 19.4144C24.0495 19.2015 23.8568 18.9678 23.6628 18.7306L22.1149 19.9971C22.3343 20.2654 22.4518 20.4107 22.5258 20.5221C22.59 20.6186 22.5614 20.6037 22.5525 20.532L24.5371 20.2846ZM24.5026 20.9756C24.5542 20.749 24.5659 20.5152 24.5371 20.2845L22.5525 20.532L22.5525 20.532L24.5026 20.9756ZM23.478 22.4348C23.6947 22.2182 23.9097 22.0048 24.0718 21.807C24.2452 21.5955 24.4226 21.3274 24.5026 20.9756L22.5525 20.532C22.5685 20.4615 22.5985 20.4495 22.525 20.5392C22.4402 20.6426 22.3089 20.7756 22.0638 21.0206L23.478 22.4348ZM22.4355 23.4774L23.478 22.4348L22.0638 21.0206L21.0213 22.0632L22.4355 23.4774ZM20.9759 24.5022C21.3277 24.4222 21.5959 24.2448 21.8075 24.0713C22.0053 23.9091 22.2188 23.6941 22.4355 23.4774L21.0213 22.0632C20.7761 22.3083 20.6431 22.4397 20.5397 22.5245C20.45 22.598 20.462 22.568 20.5325 22.552L20.9759 24.5022ZM20.2854 24.5366C20.5158 24.5653 20.7494 24.5537 20.9759 24.5022L20.5325 22.552L20.5325 22.552L20.2854 24.5366ZM18.731 23.6621C18.9682 23.8562 19.202 24.049 19.415 24.1906C19.6428 24.3422 19.9273 24.492 20.2854 24.5366L20.5325 22.552C20.6042 22.5609 20.6191 22.5895 20.5226 22.5253C20.4112 22.4513 20.2658 22.3338 19.9975 22.1142L18.731 23.6621ZM17.6289 22.7604C17.4791 22.7813 17.4487 22.6986 17.6897 22.8534C17.9236 23.0036 18.2312 23.2532 18.731 23.6621L19.9975 22.1142C19.5372 21.7376 19.1246 21.398 18.7704 21.1705C18.4231 20.9475 17.9363 20.6986 17.3538 20.7795L17.6289 22.7604ZM17.6289 22.7605L17.6289 22.7604L17.3538 20.7795C17.0156 20.8264 16.6951 20.9592 16.4227 21.1651L17.6289 22.7605ZM17.4872 24.1776C17.5515 23.5349 17.5925 23.1409 17.6517 22.8692C17.7127 22.5893 17.7496 22.6692 17.6289 22.7605L16.4227 21.1651C15.9536 21.5198 15.7854 22.0401 15.6976 22.4434C15.6079 22.8548 15.5563 23.3867 15.4972 23.9785L17.4872 24.1776ZM17.0063 25.8955C17.2281 25.6108 17.3233 25.3035 17.3772 25.0352C17.4277 24.7843 17.4567 24.4827 17.4872 24.1776L15.4972 23.9785C15.4626 24.3236 15.4429 24.5097 15.4165 24.6408C15.3936 24.7545 15.3839 24.7237 15.4283 24.6667L17.0063 25.8955ZM16.4941 26.3591C16.6904 26.2354 16.8637 26.0786 17.0063 25.8955L15.4283 24.6667L15.4284 24.6667L16.4941 26.3591ZM14.7369 26.6667C15.0435 26.6667 15.3465 26.6678 15.6012 26.6426C15.8735 26.6156 16.1887 26.5514 16.4941 26.3591L15.4283 24.6667C15.4895 24.6282 15.5192 24.6409 15.4038 24.6523C15.2707 24.6655 15.0837 24.6667 14.7369 24.6667V26.6667ZM13.2629 26.6667H14.7369V24.6667H13.2629V26.6667ZM11.5061 26.3592C11.8115 26.5514 12.1266 26.6156 12.3989 26.6426C12.6534 26.6678 12.9564 26.6667 13.2629 26.6667V24.6667C12.9162 24.6667 12.7293 24.6655 12.5962 24.6523C12.4808 24.6409 12.5105 24.6282 12.5717 24.6667L11.5061 26.3592ZM10.9936 25.8953C11.1362 26.0785 11.3096 26.2355 11.5061 26.3592L12.5716 24.6667L12.5717 24.6667L10.9936 25.8953ZM10.5128 24.1778C10.5433 24.4828 10.5723 24.7844 10.6227 25.0352C10.6767 25.3035 10.7719 25.6106 10.9936 25.8954L12.5716 24.6667C12.6161 24.7237 12.6063 24.7545 12.5835 24.6408C12.5571 24.5097 12.5374 24.3238 12.5029 23.9788L10.5128 24.1778ZM10.3711 22.7609C10.2505 22.6697 10.2873 22.5897 10.3483 22.8696C10.4075 23.1413 10.4485 23.5352 10.5128 24.1778L12.5029 23.9788C12.4437 23.387 12.3921 22.8551 12.3025 22.4438C12.2146 22.0405 12.0464 21.5202 11.5772 21.1655L10.3711 22.7609ZM10.3711 22.7609L10.3711 22.7609L11.5772 21.1655C11.3049 20.9597 10.9845 20.8269 10.6463 20.7799L10.3711 22.7609ZM9.26899 23.6626C9.76883 23.2537 10.0764 23.0041 10.3104 22.8539C10.5514 22.6991 10.5209 22.7817 10.3711 22.7609L10.6463 20.7799C10.0638 20.699 9.57695 20.948 9.22967 21.171C8.87539 21.3985 8.46283 21.7381 8.00251 22.1147L9.26899 23.6626ZM7.71453 24.5372C8.07262 24.4926 8.35711 24.3427 8.58495 24.1912C8.79798 24.0495 9.03174 23.8567 9.26899 23.6626L8.00251 22.1147C7.73417 22.3343 7.58874 22.4518 7.47738 22.5258C7.38083 22.5901 7.39575 22.5614 7.46747 22.5525L7.71453 24.5372ZM7.02415 24.5027C7.25053 24.5542 7.48414 24.5658 7.71453 24.5372L7.46747 22.5525L7.46747 22.5525L7.02415 24.5027ZM5.56443 23.4779C5.78119 23.6946 5.99461 23.9097 6.19248 24.0718C6.40411 24.2453 6.67228 24.4227 7.02415 24.5027L7.46747 22.5525C7.53795 22.5685 7.54994 22.5985 7.46026 22.525C7.35682 22.4402 7.22381 22.3088 6.97864 22.0637L5.56443 23.4779ZM4.52209 22.4355L5.56443 23.4779L6.97864 22.0637L5.9363 21.0213L4.52209 22.4355ZM4.56482 22.4758L4.56483 22.4758L5.89356 20.981L5.89354 20.981L4.56482 22.4758ZM3.49724 20.9758C3.57723 21.3277 3.75468 21.5959 3.92812 21.8075C4.09029 22.0053 4.30533 22.2188 4.52207 22.4355L5.93629 21.0213C5.69113 20.7761 5.55974 20.6431 5.47497 20.5397C5.40147 20.45 5.43146 20.462 5.44748 20.5325L3.49724 20.9758ZM3.4628 20.2854C3.43412 20.5158 3.44577 20.7494 3.49724 20.9758L5.44748 20.5325L5.44748 20.5325L3.4628 20.2854ZM4.33732 18.731C4.14321 18.9682 3.95048 19.202 3.8088 19.415C3.65727 19.6428 3.50738 19.9273 3.4628 20.2854L5.44748 20.5325C5.43856 20.6042 5.4099 20.6191 5.47411 20.5226C5.54818 20.4112 5.66569 20.2658 5.88523 19.9975L4.33732 18.731ZM4.33517 18.7336L4.33516 18.7336L5.88739 19.9948L5.8874 19.9948L4.33517 18.7336ZM5.23903 17.6289C5.21822 17.4791 5.30084 17.4487 5.14609 17.6896C4.99584 17.9236 4.74628 18.2312 4.33733 18.731L5.88524 19.9975C6.26185 19.5372 6.60146 19.1246 6.82897 18.7703C7.05197 18.4231 7.30093 17.9362 7.22001 17.3537L5.23903 17.6289ZM5.23903 17.6289L5.23903 17.6289L7.22001 17.3537C7.17304 17.0156 7.04028 16.695 6.83437 16.4227L5.23903 17.6289ZM3.82216 17.4872C4.46476 17.5515 4.85869 17.5925 5.13037 17.6517C5.41019 17.7126 5.33024 17.7495 5.23903 17.6289L6.83437 16.4227C6.4797 15.9536 5.95942 15.7854 5.55618 15.6975C5.1448 15.6079 4.61295 15.5563 4.02117 15.4971L3.82216 17.4872ZM2.10468 17.0065C2.3894 17.2281 2.69655 17.3233 2.96479 17.3773C3.21559 17.4277 3.51716 17.4567 3.82216 17.4872L4.02117 15.4971C3.67619 15.4626 3.49027 15.4429 3.35916 15.4165C3.2455 15.3937 3.2763 15.384 3.33333 15.4284L2.10468 17.0065ZM1.6408 16.4939C1.7645 16.6904 1.92147 16.8638 2.10468 17.0065L3.33333 15.4284L3.33333 15.4284L1.6408 16.4939ZM1.33333 14.7371C1.33333 15.0436 1.33218 15.3466 1.35742 15.6011C1.38442 15.8734 1.44856 16.1885 1.64079 16.4939L3.33333 15.4284C3.37183 15.4895 3.35911 15.5192 3.34767 15.4038C3.33447 15.2707 3.33333 15.0838 3.33333 14.7371L1.33333 14.7371ZM1.33333 13.2631L1.33333 14.7371L3.33333 14.7371L3.33333 13.2631L1.33333 13.2631ZM1.64092 11.5059C1.44861 11.8113 1.38444 12.1265 1.35743 12.3988C1.33218 12.6535 1.33333 12.9565 1.33333 13.2631L3.33333 13.2631C3.33333 12.9163 3.33447 12.7293 3.34767 12.5962C3.35912 12.4808 3.37185 12.5105 3.33333 12.5717L1.64092 11.5059ZM2.1045 10.9937C1.92143 11.1363 1.76456 11.3096 1.64092 11.5059L3.33333 12.5717L3.33333 12.5717L2.1045 10.9937ZM3.82229 10.5128C3.51723 10.5433 3.2156 10.5723 2.96475 10.6228C2.69645 10.6767 2.38925 10.772 2.1045 10.9937L3.33333 12.5717C3.2763 12.6161 3.24548 12.6064 3.35917 12.5835C3.4903 12.5571 3.67626 12.5374 4.0213 12.5029L3.82229 10.5128ZM3.92181 10.5078H3.9218V12.5078H3.92181V10.5078ZM3.92182 10.5078H3.92181V12.5078H3.92182V10.5078ZM5.23947 10.3711C5.33067 10.2504 5.41066 10.2873 5.13079 10.3483C4.85906 10.4075 4.46505 10.4485 3.82232 10.5128L4.02132 12.5029C4.61323 12.4437 5.14519 12.3921 5.55664 12.3024C5.95996 12.2145 6.48034 12.0463 6.83502 11.577L5.23947 10.3711ZM5.23947 10.3711L5.23947 10.3711L6.83502 11.577C7.04074 11.3048 7.1734 10.9845 7.2204 10.6466L5.23947 10.3711ZM4.33753 9.2687C4.74658 9.76866 4.99621 10.0763 5.1465 10.3103C5.30128 10.5514 5.21863 10.5209 5.23947 10.3711L7.2204 10.6466C7.30144 10.064 7.05244 9.577 6.8294 9.22965C6.60185 8.8753 6.26215 8.46265 5.88544 8.00223L4.33753 9.2687ZM3.46282 7.71377C3.50735 8.07197 3.65728 8.35655 3.80884 8.58446C3.95056 8.79755 4.14335 9.03138 4.33753 9.2687L5.88544 8.00223C5.66582 7.7338 5.54827 7.58832 5.47418 7.47692C5.40995 7.38034 5.43862 7.39526 5.44754 7.46701L3.46282 7.71377ZM3.49722 7.02398C3.44584 7.25018 3.4342 7.48359 3.46282 7.71377L5.44754 7.46701L5.44754 7.46701L3.49722 7.02398ZM4.52228 5.56384C4.30547 5.78065 4.09037 5.99413 3.92816 6.19206C3.75466 6.40375 3.57718 6.672 3.49722 7.02398L5.44754 7.46701C5.43152 7.5375 5.40152 7.5495 5.47503 7.4598C5.55983 7.35634 5.69126 7.22328 5.93649 6.97805L4.52228 5.56384ZM5.56449 4.52163L4.52228 5.56384L5.93649 6.97805L6.9787 5.93585L5.56449 4.52163ZM5.56449 4.52163L5.56449 4.52163L6.9787 5.93585L6.9787 5.93584L5.56449 4.52163ZM7.0242 3.49677C6.67233 3.57676 6.40416 3.75421 6.19253 3.92766C5.99466 4.08984 5.78124 4.30488 5.56449 4.52163L6.9787 5.93585C7.22386 5.69068 7.35688 5.55929 7.46032 5.47451C7.54999 5.40101 7.538 5.431 7.46752 5.44702L7.0242 3.49677ZM7.71458 3.46234C7.4842 3.43366 7.25059 3.44531 7.02421 3.49677L7.46752 5.44702L7.46752 5.44702L7.71458 3.46234ZM9.26913 4.33694C9.03185 4.1428 8.79807 3.95005 8.58504 3.80836C8.3572 3.65683 8.07269 3.50692 7.71459 3.46234L7.46752 5.44702C7.39579 5.43809 7.38087 5.40944 7.47744 5.47367C7.58883 5.54775 7.73428 5.66528 8.00265 5.88486L9.26913 4.33694ZM10.3712 5.23859C10.5209 5.21781 10.5514 5.30041 10.3104 5.14565C10.0764 4.99539 9.7689 4.74585 9.26913 4.33694L8.00265 5.88486C8.46292 6.26143 8.87541 6.601 9.22963 6.82849C9.57681 7.05146 10.0636 7.30042 10.646 7.21962L10.3712 5.23859ZM10.3711 5.2386L10.3712 5.2386L10.646 7.21962C10.9844 7.17268 11.3051 7.03982 11.5776 6.83372L10.3711 5.2386ZM10.5128 3.82203C10.4486 4.46448 10.4076 4.85833 10.3484 5.12995C10.2874 5.40972 10.2506 5.32981 10.3712 5.23859L11.5776 6.83372C12.0466 6.47904 12.2147 5.95887 12.3025 5.55572C12.3922 5.14442 12.4437 4.61269 12.5029 4.02104L10.5128 3.82203ZM10.9934 2.10489C10.7718 2.38957 10.6767 2.69666 10.6227 2.96484C10.5723 3.21559 10.5433 3.51709 10.5128 3.82203L12.5029 4.02104C12.5374 3.67614 12.5571 3.49026 12.5835 3.35917C12.6063 3.24553 12.616 3.27632 12.5717 3.33334L10.9934 2.10489ZM11.5063 1.64068C11.3097 1.76445 11.1361 1.92153 10.9934 2.10489L12.5716 3.33335L12.5717 3.33334L11.5063 1.64068ZM13.2628 1.33334C12.9563 1.33334 12.6534 1.3322 12.3989 1.35743C12.1267 1.38441 11.8117 1.44852 11.5063 1.64068L12.5717 3.33334C12.5105 3.37183 12.4808 3.35911 12.5962 3.34768C12.7292 3.33449 12.9162 3.33334 13.2628 3.33334V1.33334ZM14.7371 1.33334H13.2628V3.33334H14.7371V1.33334ZM16.4939 1.64081C16.1885 1.44857 15.8734 1.38443 15.6011 1.35744C15.3465 1.3322 15.0436 1.33334 14.7371 1.33334V3.33334C15.0838 3.33334 15.2707 3.33449 15.4038 3.34768C15.5192 3.35912 15.4895 3.37185 15.4283 3.33334L16.4939 1.64081ZM17.0064 2.1047C16.8638 1.92149 16.6904 1.76451 16.4939 1.64081L15.4283 3.33334L15.4283 3.33334L17.0064 2.1047ZM17.6667 14C17.6667 16.0251 16.025 17.6667 14 17.6667V19.6667C17.1296 19.6667 19.6667 17.1296 19.6667 14H17.6667ZM14 10.3333C16.025 10.3333 17.6667 11.975 17.6667 14H19.6667C19.6667 10.8704 17.1296 8.33334 14 8.33334V10.3333ZM10.3333 14C10.3333 11.975 11.975 10.3333 14 10.3333V8.33334C10.8704 8.33334 8.33333 10.8704 8.33333 14H10.3333ZM14 17.6667C11.975 17.6667 10.3333 16.0251 10.3333 14H8.33333C8.33333 17.1296 10.8704 19.6667 14 19.6667V17.6667Z" fill="white"/>
</svg>
